<?xml version="1.0" standalone="no"?>
<!DOCTYPE svg PUBLIC "-//W3C//DTD SVG 20010904//EN"
 "http://www.w3.org/TR/2001/REC-SVG-20010904/DTD/svg10.dtd">
<svg version="1.0" xmlns="http://www.w3.org/2000/svg"
 width="2560.000000pt" height="1505.000000pt" viewBox="0 0 2560.000000 1505.000000"
 preserveAspectRatio="xMidYMid meet">

<g transform="translate(0.000000,1505.000000) scale(0.100000,-0.100000)"
fill="#000000" stroke="none">
<path d="M617 15039 c-247 -36 -502 -273 -595 -554 -16 -46 -17 -477 -17
-5870 0 -4922 2 -5828 14 -5875 65 -260 301 -491 557 -545 59 -13 296 -15
1617 -15 l1547 0 0 390 0 390 -1390 0 c-1351 0 -1392 1 -1428 19 -49 25 -107
87 -127 133 -13 34 -15 591 -15 5505 l0 5467 21 42 c23 49 86 110 135 130 29
12 1729 14 11826 14 11399 0 11794 -1 11833 -19 51 -23 102 -74 126 -126 18
-39 19 -203 19 -5515 l0 -5476 -33 -54 c-21 -37 -48 -64 -81 -85 l-49 -30
-9861 -5 -9861 -5 -3 -388 -2 -387 10037 2 10038 3 58 22 c137 53 259 137 358
249 68 78 113 152 147 246 l27 73 0 5835 0 5835 -28 69 c-88 220 -301 430
-517 508 l-65 23 -12115 1 c-6663 1 -12141 -2 -12173 -7z"/>
<path d="M3780 8510 l0 -3210 495 0 495 0 0 1114 0 1114 353 390 c193 215 354
391 357 391 3 1 469 -676 1035 -1504 l1030 -1504 563 -1 562 0 -108 163 c-60
89 -607 913 -1216 1830 -957 1443 -1105 1671 -1094 1685 7 9 537 622 1178
1362 641 740 1171 1353 1179 1363 13 16 -21 17 -590 16 l-604 0 -1315 -1589
c-723 -874 -1318 -1589 -1322 -1589 -5 -1 -8 715 -8 1589 l0 1590 -495 0 -495
0 0 -3210z"/>
<path d="M10575 8519 c-665 -1760 -1211 -3204 -1213 -3209 -2 -6 203 -10 561
-10 l565 0 20 58 c17 49 546 1546 574 1625 l10 27 1262 0 1261 0 301 -852 301
-853 597 -3 c328 -1 596 1 596 5 0 5 -544 1448 -1209 3208 l-1209 3200 -604 2
-603 3 -1210 -3201z m2299 910 c262 -768 476 -1401 476 -1408 0 -8 -243 -11
-936 -11 l-935 0 7 23 c11 38 761 2390 830 2606 36 112 69 199 74 195 4 -5
222 -637 484 -1405z"/>
<path d="M16170 8540 l0 -3180 1855 0 1855 0 0 390 0 390 -1390 0 -1390 0 0
2790 0 2790 -465 0 -465 0 0 -3180z"/>
<path d="M20740 8540 l0 -3180 465 0 465 0 0 3180 0 3180 -465 0 -465 0 0
-3180z"/>
<path d="M4030 1285 c-209 -47 -354 -198 -411 -426 -19 -72 -21 -103 -16 -233
4 -112 10 -167 25 -212 62 -195 199 -332 378 -379 84 -22 251 -21 336 3 197
56 343 230 383 457 64 369 -85 687 -365 776 -86 27 -242 34 -330 14z m264
-135 c172 -53 276 -242 276 -498 -1 -340 -199 -551 -471 -502 -158 29 -273
149 -315 327 -20 89 -20 268 0 356 40 171 146 294 283 326 67 16 158 12 227
-9z"/>
<path d="M10734 1285 c-124 -27 -216 -95 -262 -195 -21 -45 -26 -70 -26 -140
0 -198 94 -283 381 -344 164 -35 224 -58 267 -106 39 -44 51 -86 44 -166 -8
-99 -87 -164 -224 -186 -113 -17 -285 16 -411 81 -23 11 -45 21 -48 21 -3 0
-5 -36 -5 -80 l0 -79 83 -25 c120 -36 199 -48 317 -48 224 1 361 65 427 200
25 51 28 68 28 157 0 83 -4 109 -24 152 -45 101 -148 172 -296 207 -38 9 -110
25 -159 36 -49 11 -108 29 -132 39 -72 32 -107 116 -84 202 17 63 43 94 105
125 109 53 288 43 456 -26 l69 -28 0 78 0 78 -77 21 c-157 42 -313 51 -429 26z"/>
<path d="M15925 1286 c-183 -42 -282 -147 -293 -310 -12 -189 86 -302 305
-352 297 -69 329 -83 371 -164 32 -61 26 -152 -12 -210 -85 -129 -363 -141
-598 -25 l-68 33 0 -83 0 -82 68 -22 c126 -39 213 -53 337 -52 230 0 359 60
427 198 29 59 32 75 32 152 1 214 -103 318 -379 377 -169 37 -219 52 -257 77
-65 44 -87 140 -49 222 22 49 43 68 106 97 44 20 65 23 170 22 109 0 128 -3
210 -32 50 -18 98 -35 108 -38 15 -6 17 2 17 69 l0 76 -52 14 c-152 43 -339
57 -443 33z"/>
<path d="M18523 1290 c-222 -40 -384 -192 -444 -417 -29 -106 -31 -316 -4
-418 56 -218 208 -373 411 -421 89 -20 249 -20 337 0 73 17 216 82 223 101 3
7 4 44 2 83 l-3 72 -64 -45 c-80 -56 -152 -83 -244 -93 -311 -32 -489 125
-513 453 -16 212 54 403 179 489 163 112 424 95 601 -40 l46 -35 0 84 0 85
-72 35 c-40 20 -100 43 -133 52 -72 20 -250 28 -322 15z"/>
<path d="M300 661 l0 -621 280 0 c217 0 298 4 357 16 137 28 223 86 270 182
24 49 28 69 28 142 -1 156 -69 251 -219 306 l-61 22 45 12 c66 17 115 53 147
107 25 44 28 57 28 143 0 85 -3 100 -27 140 -32 55 -60 81 -115 110 -91 47
-132 52 -440 57 l-293 5 0 -621z m606 454 c48 -24 63 -39 82 -75 53 -106 7
-217 -108 -260 -22 -8 -104 -15 -222 -18 l-188 -4 0 197 0 197 188 -4 c185 -4
189 -4 248 -33z m-3 -499 c101 -30 148 -97 149 -210 0 -81 -14 -124 -55 -164
-62 -60 -91 -66 -319 -70 l-208 -4 0 231 0 231 193 0 c136 0 208 -4 240 -14z"/>
<path d="M1500 1277 c0 -1 99 -148 220 -327 l220 -325 0 -292 0 -293 80 0 80
0 0 298 0 297 215 318 c118 174 215 320 215 322 0 3 -37 5 -82 5 l-83 0 -170
-255 c-93 -140 -173 -254 -177 -255 -4 0 -84 115 -178 255 l-172 255 -84 0
c-46 0 -84 -1 -84 -3z"/>
<path d="M5290 660 l0 -620 80 0 80 0 0 295 0 295 245 0 245 0 0 70 0 70 -245
0 -245 0 0 185 0 185 270 0 270 0 0 70 0 70 -350 0 -350 0 0 -620z"/>
<path d="M6510 660 l0 -620 80 0 80 0 0 295 0 295 245 0 245 0 0 70 0 70 -245
0 -245 0 0 185 0 185 270 0 270 0 0 70 0 70 -350 0 -350 0 0 -620z"/>
<path d="M7610 660 l0 -620 395 0 395 0 0 65 0 65 -315 0 -315 0 0 230 0 230
295 0 295 0 0 70 0 70 -295 0 -295 0 0 185 0 185 310 0 310 0 0 70 0 70 -390
0 -390 0 0 -620z"/>
<path d="M8910 660 l0 -620 75 0 75 0 0 522 c0 287 3 518 7 514 4 -4 130 -238
279 -519 l271 -512 112 -3 111 -3 0 621 0 620 -75 0 -75 0 0 -520 c0 -286 -3
-520 -7 -520 -5 0 -132 234 -283 520 l-275 520 -107 0 -108 0 0 -620z"/>
<path d="M11720 660 l0 -620 80 0 80 0 0 620 0 620 -80 0 -80 0 0 -620z"/>
<path d="M12330 1273 c0 -5 105 -283 233 -618 l232 -610 95 -3 95 -2 233 612
c128 337 232 617 232 621 0 4 -36 7 -81 5 l-81 -3 -196 -522 c-109 -288 -199
-523 -202 -523 -3 0 -93 235 -201 523 l-196 522 -82 3 c-44 2 -81 -1 -81 -5z"/>
<path d="M13740 660 l0 -620 400 0 400 0 0 65 0 65 -317 2 -318 3 -3 228 -2
227 300 0 300 0 0 70 0 70 -300 0 -300 0 0 185 0 185 310 0 310 0 0 70 0 70
-390 0 -390 0 0 -620z"/>
<path d="M16890 660 l0 -620 395 0 395 0 0 65 0 65 -315 0 -315 0 0 230 0 230
295 0 295 0 0 70 0 70 -295 0 -295 0 0 185 0 185 310 0 310 0 0 70 0 70 -390
0 -390 0 0 -620z"/>
<path d="M19520 840 c0 -282 4 -458 11 -492 17 -81 64 -170 113 -216 89 -82
189 -115 349 -114 204 2 333 66 406 201 57 107 61 149 61 629 l0 432 -80 0
-80 0 0 -418 c0 -441 -5 -503 -45 -582 -49 -96 -123 -133 -265 -134 -78 0
-104 4 -145 22 -68 31 -111 75 -138 141 -22 55 -22 66 -25 514 l-3 457 -79 0
-80 0 0 -440z"/>
<path d="M21060 661 l0 -621 80 0 80 0 2 262 3 263 127 -1 c221 -2 246 -22
399 -326 l100 -198 85 0 85 0 -112 221 c-88 174 -123 233 -166 279 -30 33 -63
62 -74 65 -28 9 -23 19 18 34 52 19 117 84 141 139 62 145 20 343 -90 422 -84
61 -145 73 -425 78 l-253 4 0 -621z m511 462 c83 -37 127 -126 115 -233 -10
-79 -45 -132 -108 -164 -49 -25 -60 -26 -205 -26 l-153 0 0 226 0 226 153 -4
c126 -4 160 -8 198 -25z"/>
<path d="M22450 660 l0 -620 80 0 80 0 0 620 0 620 -80 0 -80 0 0 -620z"/>
<path d="M22970 1210 l0 -70 220 0 220 0 0 -550 0 -550 80 0 80 0 0 550 0 550
225 0 225 0 0 70 0 70 -525 0 -525 0 0 -70z"/>
<path d="M24269 1263 c5 -10 102 -155 215 -323 l206 -304 0 -298 0 -298 85 0
85 0 0 298 0 299 198 294 c109 162 207 306 216 322 l18 27 -84 0 -85 0 -169
-255 c-93 -140 -173 -253 -179 -252 -5 2 -86 117 -179 255 l-170 252 -84 0
c-76 0 -82 -1 -73 -17z"/>
</g>
</svg>
